<svg width="58" height="70" viewBox="0 0 58 70" fill="none" xmlns="http://www.w3.org/2000/svg">
<path d="M40.4592 44.6934H38.1394C37.0393 44.6499 36.1898 43.7677 36.1898 42.6676V40.4565L38.8146 37.8426C40.481 36.1544 41.5919 35.0326 41.6138 32.2878C42.0494 32.2661 42.4851 32.1027 42.899 31.8086C43.9554 31.0571 44.7723 29.5541 45.0664 27.7896C45.3822 26.0251 45.1317 24.3479 44.3911 23.2914C44.0752 22.834 43.6722 22.5182 43.2692 22.3656V22.3329C44.6633 18.499 46.0357 12.9879 44.0207 9.8077C43.1712 8.46799 41.8424 7.69471 40.0671 7.48785C38.4224 3.20746 34.8282 0.64795 30.1231 0.43002C23.6427 0.179551 17.1622 4.39459 14.3304 10.8314C13.2521 14.0226 13.1542 18.0416 14.0255 23.1062C13.1976 24.1082 12.8818 25.8618 13.1976 27.7895C13.6659 30.3709 15.0927 32.1788 16.6502 32.2877C16.6719 35.0432 17.7938 36.176 19.4821 37.8642L22.085 40.4673V42.6674C22.085 43.7674 21.2247 44.6497 20.0593 44.6931H17.8048C8.41631 44.6931 0.78125 52.328 0.78125 61.7167V65.4961C0.78125 67.7506 2.61096 69.5805 4.86559 69.5805H53.4092C55.6638 69.5805 57.4936 67.7506 57.4936 65.4961V61.7167C57.4936 52.3283 49.8477 44.6934 40.4592 44.6934ZM20.6366 36.7208C19.0246 35.0979 18.284 34.3573 18.284 32.2118V31.2859C18.284 30.676 17.6305 30.273 17.075 30.5671C16.062 31.1226 15.0383 28.7918 14.8096 27.5174C14.6244 26.4283 14.7007 25.5025 14.9185 24.8599C15.2453 25.0994 15.6482 25.2411 16.073 25.2411H16.3234C17.3691 25.2411 18.2404 24.4132 18.3057 23.3895L18.5562 21.0479C18.6215 19.9588 19.482 19.0764 20.5385 18.9785C25.7773 18.5103 31.136 17.7587 34.7955 15.4279C35.2964 15.1121 35.9063 15.0249 36.5054 15.1884C37.148 15.3735 37.6816 15.82 37.9757 16.4299C39.0213 18.5647 39.2501 20.2747 38.8361 22.8777C38.8034 23.0302 38.8034 23.1609 38.8034 23.248C38.8034 24.348 39.6857 25.2412 40.7857 25.2412C41.6026 25.2412 42.3213 24.7511 42.6263 23.9995C42.6371 23.9668 42.6481 23.9342 42.659 23.9124C42.8007 23.956 42.9314 24.0541 43.0621 24.2392C43.5413 24.9144 43.6938 26.1996 43.4542 27.5174C43.1818 29.1076 42.474 30.0988 41.9512 30.469C41.8096 30.578 41.5918 30.6868 41.4067 30.6542C41.3413 30.6434 41.2868 30.6215 41.1889 30.5671C40.9275 30.4254 40.6225 30.4364 40.3829 30.5888C40.1323 30.7304 39.9799 31.0027 39.9799 31.2859V32.2118C39.9799 34.3356 39.2501 35.0762 37.6491 36.6882L34.8064 39.5418C34.7955 39.5418 34.7955 39.5418 34.7955 39.5528L33.3142 41.023C32.6062 41.731 31.6478 42.1231 30.6349 42.1231H27.6288C26.6378 42.1231 25.6792 41.731 24.9494 41.023L23.4792 39.5636C23.4792 39.5526 23.4792 39.5526 23.4682 39.5526L20.6366 36.7208ZM30.2321 61.2376C30.2321 61.8366 29.742 62.3267 29.143 62.3267C28.5331 62.3267 28.0539 61.8366 28.0539 61.2376V59.6147C28.0539 59.0158 28.5331 58.5256 29.143 58.5256C29.742 58.5256 30.2321 59.0158 30.2321 59.6147V61.2376ZM29.1319 52.6441C25.2327 52.6441 21.9109 49.9104 21.1049 46.1637C22.6188 45.7171 23.7188 44.3338 23.7188 42.6675V42.1011L23.8059 42.1882C24.8515 43.2011 26.213 43.7566 27.6288 43.7566H30.6349C32.0944 43.7566 33.4558 43.2011 34.4686 42.1774L34.5557 42.0903V42.6675C34.5557 44.323 35.6448 45.7062 37.1698 46.1637C36.3749 49.9104 33.042 52.6441 29.1319 52.6441Z" fill="#476FFD"/>
</svg>
