<svg width="70" height="66" viewBox="0 0 70 66" fill="none" xmlns="http://www.w3.org/2000/svg">
<path d="M65.6207 4.89867H56.1571V3.28033C56.1571 1.56546 54.7638 0.161499 53.0383 0.161499C51.3234 0.161499 49.9301 1.56546 49.9301 3.28033V4.89867H44.132V3.28033C44.132 1.56546 42.7279 0.161499 41.0132 0.161499C39.2985 0.161499 37.8944 1.56546 37.8944 3.28033V4.89867H32.0961V3.28033C32.0961 1.56546 30.7028 0.161499 28.9881 0.161499C27.2626 0.161499 25.8693 1.56546 25.8693 3.28033V4.89867H20.0712V3.28033C20.0712 1.56546 18.6779 0.161499 16.9523 0.161499C15.2376 0.161499 13.8443 1.56546 13.8443 3.28033V4.89867H4.37012C2.49461 4.89867 0.972656 6.42048 0.972656 8.29613V21.0821C0.972656 22.9576 2.49447 24.4795 4.37012 24.4795H5.45266V62.441C5.45266 64.3165 6.97447 65.8385 8.85012 65.8385H61.1409C63.0164 65.8385 64.5491 64.3166 64.5491 62.441V24.4795H65.6208C67.4963 24.4795 69.0289 22.9577 69.0289 21.0821V8.29613C69.0288 6.42062 67.4962 4.89867 65.6207 4.89867ZM51.5378 3.28033C51.5378 2.44429 52.2131 1.76917 53.0383 1.76917C53.8742 1.76917 54.5494 2.44443 54.5494 3.28033V4.89867H51.5378V3.28033ZM39.5021 3.28033C39.5021 2.44429 40.1773 1.76917 41.0132 1.76917C41.8492 1.76917 42.5244 2.44443 42.5244 3.28033V4.89867H39.5021V3.28033ZM27.477 3.28033C27.477 2.44429 28.1522 1.76917 28.9881 1.76917C29.8133 1.76917 30.4885 2.44443 30.4885 3.28033V4.89867H27.4768V3.28033H27.477ZM20.1462 16.1307H49.8552C50.2946 16.1307 50.659 16.495 50.659 16.9344C50.659 17.3845 50.2946 17.7382 49.8552 17.7382H20.1462C19.696 17.7382 19.3425 17.3845 19.3425 16.9344C19.3425 16.495 19.696 16.1307 20.1462 16.1307ZM15.452 3.28033C15.452 2.44429 16.1272 1.76917 16.9523 1.76917C17.7884 1.76917 18.4635 2.44443 18.4635 3.28033V4.89867H15.4519V3.28033H15.452ZM62.9412 62.441C62.9412 63.427 62.1375 64.2308 61.1407 64.2308H8.84998C7.86396 64.2308 7.06019 63.427 7.06019 62.441V24.4903H62.9414V62.441H62.9412Z" fill="#476FFD"/>
<path d="M32.76 30.3742V35.883C32.76 36.3224 32.3956 36.6868 31.9562 36.6868H26.4581C26.008 36.6868 25.6543 36.3224 25.6543 35.883V30.3742C25.6543 29.9241 26.008 29.5704 26.4581 29.5704H31.9562C32.3956 29.5704 32.76 29.9241 32.76 30.3742Z" fill="#476FFD"/>
<path d="M43.5421 29.5704H38.044C37.6046 29.5704 37.2402 29.9241 37.2402 30.3742V35.883C37.2402 36.3224 37.6046 36.6868 38.044 36.6868H43.5421C43.9816 36.6868 44.3459 36.3224 44.3459 35.883V30.3742C44.3461 29.9241 43.9817 29.5704 43.5421 29.5704ZM42.7384 35.0792H38.8479V31.1781H42.7384V35.0792Z" fill="#476FFD"/>
<path d="M55.9319 30.3742V35.883C55.9319 36.3224 55.5782 36.6868 55.1281 36.6868H49.6299C49.1905 36.6868 48.8262 36.3224 48.8262 35.883V30.3742C48.8262 29.9241 49.1905 29.5704 49.6299 29.5704H55.1281C55.5783 29.5704 55.9319 29.9241 55.9319 30.3742Z" fill="#476FFD"/>
<path d="M20.3605 40.8024H14.8624C14.4229 40.8024 14.0586 41.1667 14.0586 41.6061V47.1149C14.0586 47.5544 14.4231 47.9187 14.8624 47.9187H20.3605C20.8107 47.9187 21.1643 47.5544 21.1643 47.1149V41.6061C21.1643 41.1667 20.8106 40.8024 20.3605 40.8024ZM19.5566 46.311H15.6661V42.4099H19.5566V46.311Z" fill="#476FFD"/>
<path d="M32.76 41.6061V47.1149C32.76 47.5544 32.3956 47.9187 31.9562 47.9187H26.4581C26.008 47.9187 25.6543 47.5544 25.6543 47.1149V41.6061C25.6543 41.1667 26.008 40.8024 26.4581 40.8024H31.9562C32.3956 40.8024 32.76 41.1667 32.76 41.6061Z" fill="#476FFD"/>
<path d="M43.5421 40.8024H38.044C37.6046 40.8024 37.2402 41.1667 37.2402 41.6061V47.1149C37.2402 47.5544 37.6046 47.9187 38.044 47.9187H43.5421C43.9816 47.9187 44.3459 47.5544 44.3459 47.1149V41.6061C44.3461 41.1667 43.9817 40.8024 43.5421 40.8024ZM42.7384 46.311H38.8479V42.4099H42.7384V46.311Z" fill="#476FFD"/>
<path d="M55.9319 41.6061V47.1149C55.9319 47.5544 55.5782 47.9187 55.1281 47.9187H49.6299C49.1905 47.9187 48.8262 47.5544 48.8262 47.1149V41.6061C48.8262 41.1667 49.1905 40.8024 49.6299 40.8024H55.1281C55.5783 40.8024 55.9319 41.1667 55.9319 41.6061Z" fill="#476FFD"/>
<path d="M21.1643 52.8382V58.347C21.1643 58.7971 20.8106 59.1508 20.3605 59.1508H14.8624C14.4229 59.1508 14.0586 58.7971 14.0586 58.347V52.8382C14.0586 52.3988 14.4231 52.0344 14.8624 52.0344H20.3605C20.8106 52.0343 21.1643 52.3988 21.1643 52.8382Z" fill="#476FFD"/>
<path d="M31.9562 52.0342H26.4581C26.008 52.0342 25.6543 52.3985 25.6543 52.838V58.3468C25.6543 58.7968 26.008 59.1505 26.4581 59.1505H31.9562C32.3956 59.1505 32.76 58.7968 32.76 58.3468V52.838C32.76 52.3987 32.3956 52.0342 31.9562 52.0342ZM31.1523 57.543H27.2618V53.6419H31.1523V57.543Z" fill="#476FFD"/>
<path d="M44.3459 52.8382V58.347C44.3459 58.7971 43.9816 59.1508 43.5421 59.1508H38.044C37.6046 59.1508 37.2402 58.7971 37.2402 58.347V52.8382C37.2402 52.3988 37.6046 52.0344 38.044 52.0344H43.5421C43.9816 52.0343 44.3459 52.3988 44.3459 52.8382Z" fill="#476FFD"/>
</svg>
