<svg width="76" height="54" viewBox="0 0 76 54" fill="none" xmlns="http://www.w3.org/2000/svg">
<path d="M23.5848 37.656H20.8988V36.8232C22.4235 36.225 23.796 35.2517 24.8633 33.938C28.3117 29.7272 26.705 25.1997 26.705 24.883C27.7018 22.6896 28.2881 20.3671 28.2881 18.3732C28.2881 10.5851 20.0308 10.5851 17.3098 10.5851C14.6002 10.5851 6.33098 10.5851 6.33098 18.3732C6.33098 20.3438 6.89389 22.6426 7.87925 24.8126C7.87925 25.0471 6.31925 29.5982 9.79101 33.9028C10.8469 35.2166 12.2073 36.2134 13.7204 36.8232V37.656H11.0346C5.35765 37.656 0.759766 42.2424 0.759766 47.9425V52.8807C0.759766 53.3734 1.14687 53.7604 1.6394 53.7604H32.9917C33.4727 53.7604 33.8714 53.3733 33.8714 52.8807V47.9425C33.8715 42.1953 29.2269 37.656 23.5848 37.656ZM11.152 32.8002C9.56843 30.8296 8.9586 28.2725 9.47459 25.7977C10.706 20.7306 10.3425 19.5223 11.5623 18.7953C13.2398 17.81 15.48 20.4725 21.544 18.6192C21.7201 18.5607 21.8961 18.5373 22.0719 18.5373C22.9281 18.5373 23.7023 19.159 23.8898 20.0386C24.3357 24.1907 27.0569 28.4838 23.5029 32.8236C20.3125 36.7059 14.3776 36.7996 11.152 32.8002ZM32.1121 52.0009H2.51918V47.9425C2.51918 43.2273 6.30767 39.4152 11.0347 39.4152H13.7207V39.9431C13.7207 41.9137 15.3276 43.5322 17.3099 43.5322C19.2921 43.5322 20.899 41.9137 20.899 39.9431V39.4152H23.585C28.265 39.4152 32.1123 43.1804 32.1123 47.9425V52.0009H32.1121Z" fill="#476FFD"/>
<path d="M64.954 37.656H62.2682V36.8232C63.793 36.225 65.1535 35.2517 66.2209 33.938C69.681 29.7388 68.0741 25.1997 68.0741 24.8947C69.0828 22.7013 69.6576 20.3671 69.6576 18.3732C69.6576 10.5851 61.3884 10.5851 58.6791 10.5851C55.9578 10.5851 47.7003 10.5851 47.7003 18.3732C47.7003 20.3438 48.2516 22.6426 49.2368 24.8126C49.2368 25.0471 47.7003 29.6099 51.1486 33.9028C52.2162 35.2166 53.5766 36.2134 55.078 36.8232V37.656H52.392C46.7151 37.656 42.1172 42.2424 42.1172 47.9425V52.8807C42.1172 53.3734 42.5162 53.7604 42.9968 53.7604H74.361C74.842 53.7604 75.2407 53.3733 75.2407 52.8807V47.9425C75.2407 42.1953 70.5841 37.656 64.954 37.656ZM52.521 32.8002C50.9257 30.8296 50.3159 28.2725 50.8319 25.7977C52.0869 20.6133 51.7115 19.5106 52.9196 18.7953C53.3772 18.5254 53.8932 18.4667 54.3857 18.6192C57.2128 19.4871 60.0746 19.4871 62.9013 18.6192H62.9132C63.9572 18.3025 65.0362 18.983 65.259 20.0386C65.7049 24.1907 68.4259 28.4838 64.8601 32.8236C61.6816 36.7059 55.7466 36.7996 52.521 32.8002ZM73.4813 52.0009H43.8765V47.9425C43.8765 43.2273 47.6651 39.4152 52.392 39.4152H55.078V39.9431C55.078 41.9137 56.6966 43.5322 58.6789 43.5322C60.6494 43.5322 62.268 41.9137 62.268 39.9431V39.4152H64.9538C69.6456 39.4152 73.4811 43.1921 73.4811 47.9425V52.0009H73.4813Z" fill="#476FFD"/>
<path d="M47.3019 6.89004C47.3019 0.239624 40.2994 0.239624 38.0006 0.239624C35.6898 0.239624 28.6875 0.239624 28.6875 6.89004C28.6875 8.5323 29.1683 10.4323 29.9777 12.2387C29.9777 12.4379 28.6758 16.297 31.6081 19.9331C34.951 24.097 41.1206 23.9797 44.4047 19.9684C47.2785 16.4612 45.9765 12.5085 45.9765 12.3091C46.8092 10.491 47.3019 8.55561 47.3019 6.89004ZM43.0442 18.854C40.4873 21.9858 35.6312 22.1381 32.9687 18.8306C31.6786 17.2237 31.1742 15.1358 31.5965 13.1185C32.6756 8.63773 32.3473 7.91059 33.2737 7.37114C34.3998 6.7025 36.7457 8.70826 41.5663 7.23037C41.6954 7.19503 41.8244 7.17157 41.9536 7.17157C42.6103 7.17157 43.1967 7.64094 43.3492 8.30943C43.7011 11.6404 45.9531 15.3118 43.0442 18.854Z" fill="#476FFD"/>
</svg>
