<svg width="70" height="70" viewBox="0 0 70 70" fill="none" xmlns="http://www.w3.org/2000/svg">
<path d="M22.7132 20.8565H43.7217C44.1574 20.8565 44.5111 20.5028 44.5111 20.0671C44.5111 19.6313 44.1574 19.2777 43.7217 19.2777H22.7132C22.2774 19.2777 21.9238 19.6313 21.9238 20.0671C21.9238 20.5028 22.2774 20.8565 22.7132 20.8565Z" fill="#476FFD"/>
<path d="M22.7132 25.8042H33.5032C33.9389 25.8042 34.2926 25.4506 34.2926 25.0148C34.2926 24.579 33.9389 24.2253 33.5032 24.2253H22.7132C22.2774 24.2253 21.9238 24.579 21.9238 25.0148C21.9238 25.4505 22.2774 25.8042 22.7132 25.8042Z" fill="#476FFD"/>
<path d="M22.7132 35.3479H43.7217C44.1574 35.3479 44.5111 34.9942 44.5111 34.5585C44.5111 34.1226 44.1574 33.769 43.7217 33.769H22.7132C22.2774 33.769 21.9238 34.1226 21.9238 34.5585C21.9238 34.9942 22.2774 35.3479 22.7132 35.3479Z" fill="#476FFD"/>
<path d="M22.7132 40.2953H33.5032C33.9389 40.2953 34.2926 39.9417 34.2926 39.5058C34.2926 39.07 33.9389 38.7164 33.5032 38.7164H22.7132C22.2774 38.7164 21.9238 39.0701 21.9238 39.5058C21.9238 39.9417 22.2774 40.2953 22.7132 40.2953Z" fill="#476FFD"/>
<path d="M22.7132 49.839H43.7217C44.1574 49.839 44.5111 49.4853 44.5111 49.0495C44.5111 48.6137 44.1574 48.2601 43.7217 48.2601H22.7132C22.2774 48.2601 21.9238 48.6137 21.9238 49.0495C21.9238 49.4853 22.2774 49.839 22.7132 49.839Z" fill="#476FFD"/>
<path d="M33.5032 53.2075H22.7132C22.2774 53.2075 21.9238 53.5612 21.9238 53.9969C21.9238 54.4328 22.2774 54.7863 22.7132 54.7863H33.5032C33.9389 54.7863 34.2926 54.4328 34.2926 53.9969C34.2928 53.5612 33.9391 53.2075 33.5032 53.2075Z" fill="#476FFD"/>
<path d="M54.0795 46.1263C52.311 46.1263 50.6268 46.5579 49.1427 47.3052V11.5895C49.1427 9.88408 47.7532 8.49475 46.0479 8.49475H38.0901C37.5216 7.25252 36.269 6.37902 34.8164 6.37902H30.7322L31.5216 5.52645C32.9111 4.02117 31.8374 1.5791 29.7847 1.5791H24.1215C22.0688 1.5791 21.0057 4.02117 22.3952 5.52645L23.1741 6.37902H19.0899C17.6372 6.37902 16.3952 7.25266 15.8267 8.49475H7.85844C6.15314 8.49475 4.76367 9.88408 4.76367 11.5895V65.3264C4.76367 67.0317 6.15314 68.4212 7.85844 68.4212H46.0479C47.1427 68.4212 48.0796 67.8422 48.6269 66.9895C50.248 67.8948 52.1006 68.4212 54.0795 68.4212C60.2374 68.4212 65.2374 63.4212 65.2374 57.2843C65.2374 51.1368 60.2373 46.1263 54.0795 46.1263ZM24.1215 3.15793H29.7847C30.4585 3.15793 30.8162 3.95787 30.3532 4.46318L28.5847 6.37902H25.3215L23.5531 4.46318C23.09 3.9684 23.4479 3.15793 24.1215 3.15793ZM46.0479 66.8421H7.85844C7.02691 66.8421 6.34264 66.1683 6.34264 65.3263V11.5895C6.34264 10.758 7.02691 10.0737 7.85844 10.0737H15.5111C15.5638 12.0105 17.1427 13.5789 19.09 13.5789H34.8164C36.7638 13.5789 38.3531 12.0105 38.4058 10.0737H46.0479C46.8795 10.0737 47.5638 10.758 47.5638 11.5895V48.2527C44.7638 50.2843 42.9321 53.5683 42.9321 57.2843C42.9321 60.8843 44.6585 64.0842 47.3216 66.116C47.0479 66.5473 46.5952 66.8421 46.0479 66.8421ZM54.0795 66.8421C48.8058 66.8421 44.5111 62.5579 44.5111 57.2842C44.5111 51.9999 48.8058 47.7053 54.0795 47.7053C59.3637 47.7053 63.6584 51.9999 63.6584 57.2842C63.6584 62.5579 59.3637 66.8421 54.0795 66.8421Z" fill="#476FFD"/>
<path d="M14.6155 46.3053C11.7313 46.3053 9.39453 48.6421 9.39453 51.5263C9.39453 54.4 11.7313 56.7368 14.6155 56.7368C17.4892 56.7368 19.826 54.4 19.826 51.5263C19.826 48.6421 17.4892 46.3053 14.6155 46.3053ZM16.5209 51.0632L14.4892 53.0949C14.3418 53.2528 14.1418 53.3264 13.9313 53.3264C13.7207 53.3264 13.5207 53.2528 13.3733 53.0949L12.6996 52.4317C12.3943 52.1264 12.3943 51.6317 12.6996 51.3159C13.0154 51.0106 13.51 51.0106 13.8259 51.3159L13.9311 51.4212L15.4048 49.9475C15.7101 49.6421 16.2153 49.6421 16.5206 49.9475C16.826 50.2526 16.826 50.758 16.5209 51.0632Z" fill="#476FFD"/>
<path d="M14.6155 31.8105C11.7313 31.8105 9.39453 34.1579 9.39453 37.0316C9.39453 39.9051 11.7313 42.2526 14.6155 42.2526C17.4892 42.2526 19.826 39.9053 19.826 37.0316C19.826 34.158 17.4892 31.8105 14.6155 31.8105ZM16.5209 36.5685L14.4892 38.6107C14.3418 38.758 14.1418 38.8421 13.9313 38.8421C13.7207 38.8421 13.5207 38.758 13.3733 38.6107L12.6996 37.9474C12.3943 37.6316 12.3943 37.137 12.6996 36.8317C13.0154 36.5159 13.51 36.5159 13.8259 36.8317L13.9311 36.937L15.4048 35.4527C15.7101 35.1473 16.2153 35.1473 16.5206 35.4527C16.826 35.7684 16.826 36.2632 16.5209 36.5685Z" fill="#476FFD"/>
<path d="M14.6155 17.3264C11.7313 17.3264 9.39453 19.6632 9.39453 22.5369C9.39453 25.4211 11.7313 27.7579 14.6155 27.7579C17.4892 27.7579 19.826 25.4211 19.826 22.5369C19.826 19.6632 17.4892 17.3264 14.6155 17.3264ZM16.5209 22.0842L14.4892 24.1157C14.3418 24.2633 14.1418 24.3473 13.9313 24.3473C13.7207 24.3473 13.5207 24.2633 13.3733 24.1157L12.6996 23.4528C12.3943 23.1474 12.3943 22.6422 12.6996 22.3369C13.0154 22.0316 13.51 22.0316 13.8259 22.3369L13.9311 22.4422L15.4048 20.9685C15.7101 20.6525 16.2153 20.6525 16.5206 20.9685C16.826 21.2738 16.826 21.7684 16.5209 22.0842Z" fill="#476FFD"/>
<path d="M54.0843 51.0232C54.5202 51.0232 54.8738 50.6695 54.8738 50.2338V49.7547C54.8738 49.3189 54.5202 48.9653 54.0843 48.9653C53.6485 48.9653 53.2949 49.3189 53.2949 49.7547V50.2338C53.2948 50.6695 53.6485 51.0232 54.0843 51.0232Z" fill="#476FFD"/>
<path d="M54.8738 64.7997V64.3197C54.8738 63.8838 54.5202 63.5303 54.0843 63.5303C53.6485 63.5303 53.2949 63.8838 53.2949 64.3197V64.7997C53.2949 65.2356 53.6486 65.5891 54.0843 65.5891C54.5202 65.5893 54.8738 65.2356 54.8738 64.7997Z" fill="#476FFD"/>
<path d="M61.1273 58.0667H61.6069C62.0428 58.0667 62.3963 57.7131 62.3963 57.2773C62.3963 56.8415 62.0428 56.4879 61.6069 56.4879H61.1273C60.6914 56.4879 60.3379 56.8415 60.3379 57.2773C60.3378 57.7131 60.6914 58.0667 61.1273 58.0667Z" fill="#476FFD"/>
<path d="M47.0405 56.4878H46.5609C46.125 56.4878 45.7715 56.8413 45.7715 57.2772C45.7715 57.7131 46.1252 58.0666 46.5609 58.0666H47.0405C47.4764 58.0666 47.8299 57.7129 47.8299 57.2772C47.8299 56.8413 47.4764 56.4878 47.0405 56.4878Z" fill="#476FFD"/>
<path d="M55.3847 59.6941C55.693 60.0024 56.1925 60.0024 56.501 59.6941C56.8094 59.3856 56.8094 58.886 56.501 58.5776L54.8738 56.9504V53.4758C54.8738 53.04 54.5202 52.6864 54.0843 52.6864C53.6485 52.6864 53.2949 53.0401 53.2949 53.4758V57.2773C53.2949 57.487 53.3782 57.6874 53.5262 57.8354L55.3847 59.6941Z" fill="#476FFD"/>
<path d="M61.1529 8.82092C61.1529 8.65262 61.1002 8.49471 61.0055 8.35786L58.4055 2.07358C58.1634 1.47352 57.1845 1.47352 56.9423 2.07358L54.2792 8.51563C54.2792 8.53668 54.2792 8.5576 54.2687 8.57866C54.2476 8.65249 54.2266 8.7367 54.2266 8.82079V40.6209C54.2266 41.9681 55.3318 43.0628 56.6792 43.0628H58.6897C60.0371 43.0628 61.1318 41.9681 61.1318 40.6209C61.1318 36.4104 61.1213 16.305 61.1213 8.93672C61.1318 8.89475 61.1529 8.86317 61.1529 8.82092ZM57.6791 4.44209L59.1633 8.03151H56.1949L57.6791 4.44209ZM59.5528 40.621C59.5528 41.0948 59.1633 41.4841 58.6897 41.4841H56.6792C56.1949 41.4841 55.8055 41.0949 55.8055 40.621V38.5578H59.5528V40.621Z" fill="#476FFD"/>
</svg>
