<svg width="70" height="70" viewBox="0 0 70 70" fill="none" xmlns="http://www.w3.org/2000/svg">
<path d="M52.153 22.5302C50.056 13.0443 40.7021 7.07191 31.2163 9.15783C21.7526 11.2439 15.758 20.6418 17.8441 30.1055C19.9301 39.5582 29.317 45.5636 38.7808 43.4667C48.2445 41.3808 54.239 31.9938 52.153 22.5302ZM38.4294 41.8638C29.855 43.7522 21.3464 38.3176 19.447 29.7432C17.5586 21.1796 22.9932 12.6602 31.5676 10.7718C40.175 8.87236 48.6507 14.3069 50.5501 22.8814C52.4384 31.4558 47.0039 39.9755 38.4294 41.8638Z" fill="#476FFD"/>
<path d="M59.9152 21.531C57.9391 19.0937 57.7743 18.6984 57.9391 15.3938C58.1916 10.5192 57.3461 9.16888 52.4386 7.85132C49.2876 7.00599 48.9473 6.74239 47.2017 4.05259C44.3801 -0.306005 42.8102 -0.591474 38.3527 1.11026C35.2457 2.29603 34.7517 2.29603 31.6446 1.11026C27.1324 -0.613349 25.5843 -0.261982 22.7958 4.05273C21.0501 6.7536 20.7097 7.00599 17.5589 7.85146C12.6843 9.15794 11.806 10.4754 12.0584 15.394C12.2232 18.6766 12.0804 19.0828 10.0823 21.5311C6.93134 25.4066 6.82156 27.0974 10.0823 31.0936C12.0584 33.5309 12.2232 33.9373 12.0584 37.2419C11.8059 42.1714 12.6953 43.4779 17.5589 44.7844C18.9313 45.1467 20.0511 45.4322 20.9294 46.1788L13.9359 63.2399C13.3649 64.6343 14.6055 66.0834 16.0658 65.7431L21.6211 64.4475C21.7198 64.4257 21.8077 64.4696 21.8517 64.5464L24.1024 68.8611C24.827 70.2555 26.8472 70.1676 27.4509 68.7184L34.8836 50.6362C34.9166 50.6362 34.9605 50.6253 34.9934 50.6253C35.0482 50.6253 35.1032 50.6362 35.1471 50.6472L42.5469 68.7074C43.1397 70.1676 45.1708 70.2555 45.8954 68.8611L48.146 64.5464C48.19 64.4696 48.2888 64.4257 48.3767 64.4475L53.932 65.7431C55.3921 66.0834 56.6328 64.6343 56.0619 63.2399L49.0683 46.1788C49.9246 45.4431 50.9896 45.1687 52.4389 44.7844C57.3464 43.467 58.1917 42.1275 57.9393 37.2419C57.7746 33.9593 57.9173 33.5639 59.9155 31.1047C63.121 27.1631 63.1319 25.4834 59.9152 21.531ZM56.3031 37.3186C56.5117 41.4795 56.0835 42.0943 52.0104 43.1923C48.563 44.1146 47.8384 44.5647 45.8183 47.6827C43.4798 51.2947 42.7441 51.4265 38.9455 49.9772C35.5202 48.6708 34.4992 48.6598 31.0518 49.9772C27.2203 51.4374 26.4957 51.2728 24.1791 47.6827C22.1589 44.5647 21.4343 44.1146 17.987 43.1923C13.9138 42.0944 13.4856 41.4796 13.6943 37.3186C13.8809 33.6078 13.6065 32.8282 11.3558 30.0616C8.65509 26.7351 8.65509 25.8896 11.3558 22.574C13.5956 19.8293 13.892 19.0387 13.6943 15.317C13.4856 11.167 13.9029 10.5413 17.987 9.44327C21.5221 8.49909 22.2028 8.00499 24.1791 4.94194C26.4957 1.36292 27.2201 1.18724 31.0518 2.64739C34.5432 3.98683 35.4543 3.98683 38.9455 2.64739C42.7552 1.19817 43.4908 1.35185 45.8183 4.94194C47.7834 7.99405 48.4642 8.48816 52.0104 9.44327C56.0835 10.5302 56.5117 11.1559 56.3031 15.317C56.1055 19.0389 56.4019 19.8183 58.6415 22.574C61.3424 25.8896 61.3424 26.7349 58.6415 30.0616C56.4019 32.8173 56.1055 33.5968 56.3031 37.3186Z" fill="#476FFD"/>
<path d="M42.7005 25.3077L39.4398 28.4696L40.2083 32.9489C40.329 33.6297 39.6154 34.1347 39.0225 33.8163L34.9933 31.7084L30.9751 33.8163C30.3712 34.1347 29.6686 33.6297 29.7784 32.9489L30.5469 28.4696L27.2971 25.3077C26.8141 24.8356 27.0885 24.0012 27.7582 23.9024L32.2486 23.2546L34.2577 19.1815C34.5322 18.6216 35.4544 18.6216 35.7399 19.1815L37.738 23.2546L42.2394 23.9024C42.9091 24.0012 43.1835 24.8356 42.7005 25.3077Z" fill="#476FFD"/>
</svg>
