<svg width="70" height="70" viewBox="0 0 70 70" fill="none" xmlns="http://www.w3.org/2000/svg">
<path d="M64.4122 0.141113H5.58736C2.58078 0.141113 0.140625 2.58127 0.140625 5.58785V44.652C0.140625 47.6585 2.58078 50.0987 5.58736 50.0987H23.4419C24.3896 53.1053 26.4703 55.6 29.1936 57.0924V68.7702C29.1936 69.6417 30.1631 70.1429 30.8712 69.6853L34.9998 67.0055L39.1394 69.6853C39.4661 69.9032 39.9019 69.914 40.2505 69.7289C40.5991 69.5329 40.8169 69.1733 40.8169 68.7702V57.0924C43.5294 55.6 45.6209 53.1054 46.5687 50.0987H64.4122C67.4188 50.0987 69.859 47.6585 69.859 44.652V5.58785C69.859 2.58127 67.4188 0.141113 64.4122 0.141113ZM38.6383 66.7658L35.5881 64.794C35.2287 64.5653 34.7711 64.5653 34.4116 64.794L31.3724 66.7658V58.0292C32.5162 58.3888 33.7363 58.5848 34.9998 58.5848C36.2635 58.5848 37.4945 58.3888 38.6383 58.0184V66.7658ZM34.9998 56.4061C29.5204 56.4061 25.065 51.9505 25.065 46.4713C25.065 40.9809 29.5205 36.5255 34.9998 36.5255C40.4792 36.5255 44.9455 40.9809 44.9455 46.4713C44.9455 51.9507 40.4792 56.4061 34.9998 56.4061ZM45.9913 41.384C44.0632 37.2336 39.8692 34.3468 34.9998 34.3468C30.1304 34.3468 25.9472 37.2335 24.0192 41.384H15.3153C14.836 38.0505 12.1888 35.4035 8.85535 34.9241V15.3158C12.1888 14.8365 14.836 12.1893 15.3153 8.85598H54.6843C55.1636 12.1893 57.8108 14.8365 61.1441 15.3158V34.9241C57.8106 35.4035 55.1636 38.0506 54.6843 41.384H45.9913Z" fill="#476FFD"/>
<path d="M50.4788 16.8953C50.4788 19.2701 48.5616 21.1982 46.1868 21.1982H23.8225C21.4477 21.1982 19.5195 19.2701 19.5195 16.8953C19.5195 14.5314 21.4477 12.6033 23.8225 12.6033H46.1868C48.5615 12.6033 50.4788 14.5314 50.4788 16.8953Z" fill="#476FFD"/>
<path d="M55.0209 25.8511C55.0209 25.249 54.5336 24.7617 53.9315 24.7617H16.0777C15.4755 24.7617 14.9883 25.249 14.9883 25.8511C14.9883 26.4532 15.4755 26.9405 16.0777 26.9405H53.9315C54.5336 26.9405 55.0209 26.4532 55.0209 25.8511Z" fill="#476FFD"/>
<path d="M43.9095 30.1456H26.0991C25.497 30.1456 25.0098 30.6329 25.0098 31.235C25.0098 31.8371 25.497 32.3244 26.0991 32.3244H43.9096C44.5117 32.3244 44.999 31.8371 44.999 31.235C44.999 30.6329 44.5116 30.1456 43.9095 30.1456Z" fill="#476FFD"/>
</svg>
