<svg width="181" height="103" viewBox="0 0 181 103" fill="none" xmlns="http://www.w3.org/2000/svg">
<path fill-rule="evenodd" clip-rule="evenodd" d="M139.446 78.7934C135.504 83.8092 129.864 88.4433 122.528 92.6958L133.533 103C140.322 99.9469 146.618 96.2941 152.421 92.0416C158.224 87.7891 163.207 82.8278 167.368 77.1578C171.638 71.3788 174.978 64.9455 177.387 57.858C179.796 50.6614 181 42.6471 181 33.8149C181 27.0545 179.85 20.9483 177.551 15.4964C175.361 9.93544 172.35 5.19225 168.517 1.26686C168.106 0.833263 167.686 0.410978 167.257 5.83407e-08L108.849 0C105.556 3.22749 102.999 7.02998 101.176 11.4075C99.4241 15.878 98.5481 20.6758 98.5481 25.8006C98.5481 31.6887 99.4241 36.9225 101.176 41.5022C103.038 46.0818 105.611 49.9527 108.896 53.1148C112.29 56.1679 116.287 58.5122 120.886 60.1478C125.594 61.7834 130.795 62.6011 136.489 62.6011C139.008 62.6011 141.143 62.4376 142.895 62.1105C144.647 61.7834 146.289 61.4017 147.822 60.9656C146.289 67.835 143.497 73.7776 139.446 78.7934ZM10.3007 0L68.7094 5.83407e-08C69.138 0.410978 69.5579 0.833263 69.9691 1.26686C73.8016 5.19225 76.8128 9.93544 79.0027 15.4964C81.3022 20.9483 82.4519 27.0545 82.4519 33.8149C82.4519 42.6471 81.2474 50.6614 78.8385 57.858C76.4295 64.9455 73.0898 71.3788 68.8194 77.1578C64.6585 82.8278 59.6763 87.7891 53.873 92.0416C48.0696 96.2941 41.7734 99.9469 34.9846 103L23.98 92.6958C31.3164 88.4433 36.9555 83.8092 40.8975 78.7934C44.9489 73.7776 47.7411 67.835 49.274 60.9656C47.7411 61.4017 46.0986 61.7834 44.3466 62.1105C42.5947 62.4376 40.4595 62.6011 37.941 62.6011C32.2471 62.6011 27.046 61.7834 22.3376 60.1478C17.7387 58.5122 13.742 56.1679 10.3476 53.1148C7.06261 49.9527 4.48941 46.0818 2.62795 41.5022C0.875983 36.9225 0 31.6887 0 25.8006C0 20.6758 0.875983 15.878 2.62795 11.4075C4.45064 7.02998 7.00823 3.22749 10.3007 0Z" fill="#DDE0EB"/>
</svg>
