<svg><svg viewBox="0 0 15 14" id="ic_burger" xmlns="http://www.w3.org/2000/svg"><path d="M14.148 7.808H.852C.382 7.808 0 7.446 0 7c0-.446.382-.808.852-.808h13.296c.47 0 .852.362.852.808 0 .446-.382.808-.852.808zM14.148 1.615H.852C.382 1.615 0 1.254 0 .808 0 .362.382 0 .852 0h13.296c.47 0 .852.362.852.808 0 .446-.382.807-.852.807zM10.057 14H.852C.382 14 0 13.638 0 13.192c0-.446.382-.807.852-.807h9.205c.47 0 .852.361.852.807 0 .446-.382.808-.852.808z"/></svg><svg viewBox="0 0 17 13" id="ic_email" xmlns="http://www.w3.org/2000/svg"><path d="M14.548 0H2.452C1.256 0 .243.83 0 1.938L8.51 7 17 1.938C16.757.83 15.744 0 14.548 0z"/><path d="M8.992 8.424a.882.882 0 0 1-1.004 0L0 3v7.21C0 11.75 1.124 13 2.509 13H14.49C15.876 13 17 11.75 17 10.21V3L8.992 8.424z"/></svg><svg viewBox="0 0 5 11" id="ic_facebook" xmlns="http://www.w3.org/2000/svg"><path d="M4.087 1.826H5V.077C4.843.054 4.3 0 3.67 0 2.354 0 1.452.91 1.452 2.585v1.54H0V6.08h1.452V11h1.781V6.08h1.394l.22-1.955H3.234V2.778c0-.565.138-.952.854-.952z"/></svg><svg viewBox="0 0 11 11" id="ic_location" xmlns="http://www.w3.org/2000/svg"><path d="M10.703 4.784L6.214.297A1.006 1.006 0 0 0 5.499 0c-.27 0-.525.105-.716.297L.298 4.78l-.004.005a1.014 1.014 0 0 0 .705 1.727h.179v3.302c0 .653.531 1.185 1.185 1.185h1.755a.322.322 0 0 0 .323-.322v-2.59c0-.297.242-.54.54-.54h1.036c.298 0 .54.243.54.54v2.59c0 .178.145.322.323.322h1.755c.654 0 1.185-.532 1.185-1.185V6.513h.166a1.014 1.014 0 0 0 .717-1.728z"/></svg><svg viewBox="0 0 16 16" id="ic_order" xmlns="http://www.w3.org/2000/svg"><path d="M12.857 8a.54.54 0 0 0-.54.54v5.396a.54.54 0 0 1-.54.54H2.063a.54.54 0 0 1-.54-.54V3.143a.54.54 0 0 1 .54-.54H8.54a.54.54 0 1 0 0-1.08H2.063c-.894 0-1.619.726-1.619 1.62v10.793c0 .895.725 1.62 1.62 1.62h9.713c.895 0 1.62-.725 1.62-1.62V8.54a.54.54 0 0 0-.54-.54z"/><path d="M14.95 1.05a2.066 2.066 0 0 0-2.921 0l-7.11 7.108a.546.546 0 0 0-.13.211L3.71 11.607a.54.54 0 0 0 .683.683l3.238-1.08a.538.538 0 0 0 .21-.13l7.11-7.109a2.066 2.066 0 0 0 0-2.921z"/></svg><svg viewBox="0 0 16 16" id="ic_phone" xmlns="http://www.w3.org/2000/svg"><path d="M15.548 11.742L13.315 9.51c-.798-.798-2.153-.479-2.472.558-.24.718-1.037 1.116-1.755.957-1.594-.399-3.748-2.472-4.146-4.147-.24-.718.239-1.515.957-1.754 1.036-.32 1.355-1.675.558-2.472L4.224.419c-.638-.559-1.595-.559-2.153 0L.556 1.934c-1.515 1.595.16 5.821 3.907 9.57 3.748 3.747 7.975 5.502 9.57 3.907l1.515-1.515c.558-.639.558-1.595 0-2.154z"/></svg><svg viewBox="0 0 59 38" id="ic_slider_arrow" xmlns="http://www.w3.org/2000/svg"><path fill-rule="evenodd" clip-rule="evenodd" d="M21.06.94a1.5 1.5 0 0 1 0 2.12L6.622 17.5H57a1.5 1.5 0 0 1 0 3H6.621l14.44 14.44a1.5 1.5 0 0 1-2.122 2.12L.88 19 18.939.94a1.5 1.5 0 0 1 2.122 0z"/></svg><svg viewBox="0 0 11 9" id="ic_telegram" xmlns="http://www.w3.org/2000/svg"><path d="M4.382 5.873a.214.214 0 0 0-.072.146l-.167 2.31c-.005.062.046.117.11.107.18-.028.277-.123.39-.233l1.22-1.146 2.53 1.819c.463.254.79.12.915-.419L10.968.82c.148-.674-.247-.937-.7-.772L.512 3.716c-.666.254-.656.618-.114.783l2.399.733c.061.018.127.01.182-.023L8.688 1.7c.272-.177.52-.079.316.098L4.382 5.873z"/></svg><svg viewBox="0 0 12 9" id="ic_twitter" xmlns="http://www.w3.org/2000/svg"><path d="M12 1.065c-.446.181-.922.3-1.418.36A2.3 2.3 0 0 0 11.665.168a5.17 5.17 0 0 1-1.56.55A2.565 2.565 0 0 0 8.308 0C6.946 0 5.849 1.02 5.849 2.271c0 .18.017.354.057.518C3.861 2.697 2.051 1.792.836.414c-.213.34-.337.729-.337 1.148 0 .786.439 1.483 1.093 1.887A2.587 2.587 0 0 1 .48 3.17v.025c0 1.104.853 2.02 1.971 2.232-.2.05-.418.074-.645.074-.157 0-.317-.008-.466-.038.319.899 1.224 1.56 2.299 1.582a5.21 5.21 0 0 1-3.05.968c-.202 0-.395-.008-.589-.031A7.351 7.351 0 0 0 3.774 9c4.527 0 7.002-3.462 7.002-6.462a5.3 5.3 0 0 0-.009-.294c.488-.32.899-.719 1.233-1.179z"/></svg><svg viewBox="0 0 13 7" id="ic_phone" xmlns="http://www.w3.org/2000/svg"><path d="M11.562 5.53c-.359-.432-.782-.8-1.181-1.19-.361-.351-.384-.555-.094-.962.316-.443.657-.87.976-1.31.298-.413.603-.824.76-1.318.1-.314.011-.453-.31-.508a.995.995 0 0 0-.17-.01L9.632.23c-.236-.004-.366.1-.449.308-.112.282-.228.563-.362.836-.304.617-.643 1.213-1.119 1.718-.105.111-.22.252-.396.194-.219-.08-.284-.441-.28-.563L7.024.517C6.982.202 6.912.06 6.6 0H4.614c-.265 0-.398.103-.54.269-.081.095-.106.157.062.19.33.062.515.275.564.605.08.528.074 1.058.028 1.588-.013.155-.04.31-.101.454-.096.227-.251.273-.455.133-.184-.126-.314-.305-.44-.484A10.667 10.667 0 0 1 2.565.595c-.09-.22-.244-.354-.478-.358C1.515.228.942.227.368.237.023.245-.08.413.061.725c.624 1.39 1.32 2.74 2.227 3.97.466.632 1 1.189 1.692 1.584.783.448 1.626.583 2.514.541.415-.02.54-.128.56-.542.012-.284.045-.565.184-.82.138-.25.346-.298.585-.142.12.078.221.177.316.281.234.256.46.52.703.767.305.31.665.493 1.12.456h1.756c.283-.018.43-.365.267-.68a3.381 3.381 0 0 0-.423-.61z"/></svg></svg>