<?xml version="1.0" encoding="utf-8"?><svg fill="none" viewBox="0 0 12 12" id="ic_close" xmlns="http://www.w3.org/2000/svg"><path d="M6.786 6.001l4.439-4.414a.534.534 0 0 0 0-.762.547.547 0 0 0-.77 0l-4.434 4.41L1.545.76a.543.543 0 0 0-.77 0 .547.547 0 0 0 0 .771l4.473 4.473-4.489 4.464a.535.535 0 0 0 0 .762c.212.21.557.21.77 0l4.484-4.46 4.459 4.458a.543.543 0 0 0 .769 0 .547.547 0 0 0 0-.771L6.786 6z" fill="currentColor"/></svg><svg id="ic_arrow" viewBox="0 0 8 14" xmlns="http://www.w3.org/2000/svg"><path d="M7.70317 7.69307L1.68338 13.7127C1.30045 14.0958 0.679593 14.0958 0.296848 13.7127C-0.0859285 13.3299 -0.0859285 12.7091 0.296848 12.3263L5.62343 6.9999L0.297003 1.67367C-0.0857737 1.29074 -0.0857737 0.669973 0.297003 0.287198C0.679779 -0.0957326 1.30061 -0.0957326 1.68354 0.287198L7.70333 6.30688C7.89472 6.49836 7.9903 6.74905 7.9903 6.99987C7.9903 7.25081 7.89453 7.50168 7.70317 7.69307Z" fill="white"/></svg><svg id="ic_plus" viewBox="0 0 27 27" fill="none" xmlns="http://www.w3.org/2000/svg"><path d="M0.421875 13.5C0.421875 6.27539 6.27539 0.421875 13.5 0.421875C20.7246 0.421875 26.5781 6.27539 26.5781 13.5C26.5781 20.7246 20.7246 26.5781 13.5 26.5781C6.27539 26.5781 0.421875 20.7246 0.421875 13.5ZM13.5 24.8906C19.7596 24.8906 24.8906 19.8229 24.8906 13.5C24.8906 7.24043 19.8229 2.10938 13.5 2.10938C7.24043 2.10938 2.10938 7.17715 2.10938 13.5C2.10938 19.7596 7.17715 24.8906 13.5 24.8906ZM14.1592 20.0127L20.2289 13.9482C20.4768 13.7004 20.4768 13.2996 20.2289 13.0518L14.1592 6.9873C13.9113 6.73945 13.5105 6.73945 13.2627 6.9873L12.8988 7.35117C12.651 7.59902 12.651 8.01035 12.9094 8.25293L17.4182 12.6035H7.38281C7.03477 12.6035 6.75 12.8883 6.75 13.2363V13.7637C6.75 14.1117 7.03477 14.3965 7.38281 14.3965H17.4182L12.9041 18.7471C12.651 18.9949 12.6457 19.401 12.8936 19.6488L13.2574 20.0127C13.5105 20.2605 13.9113 20.2605 14.1592 20.0127Z" fill="#476FFD"/></svg><svg width="24" height="24" id="ic_phone" viewBox="0 0 24 24"><path d="M23.9885 18.9361C24.0394 19.3257 23.9207 19.6645 23.6328 19.9524L20.2537 23.306C20.1013 23.4754 19.9023 23.6195 19.6567 23.7379C19.4111 23.8565 19.1697 23.9328 18.9327 23.9666C18.9158 23.9666 18.8648 23.9709 18.7801 23.9794C18.6955 23.9878 18.5854 23.9922 18.4499 23.9922C18.128 23.9922 17.6071 23.9371 16.8873 23.827C16.1674 23.7168 15.2866 23.4458 14.245 23.0139C13.2032 22.582 12.0218 21.9341 10.7007 21.0703C9.37954 20.2066 7.97364 19.0208 6.48309 17.5133C5.29742 16.3446 4.31501 15.2267 3.53586 14.1596C2.75671 13.0925 2.13 12.1058 1.65574 11.1996C1.18143 10.2935 0.825731 9.47196 0.588598 8.73515C0.351465 7.99835 0.190553 7.36317 0.105863 6.82962C0.0211726 6.29607 -0.0127036 5.87685 0.00423452 5.57197C0.0211726 5.26708 0.0296416 5.0977 0.0296416 5.06383C0.0635178 4.82669 0.139739 4.58533 0.258306 4.33972C0.376872 4.09412 0.520846 3.8951 0.690226 3.74266L4.06937 0.363512C4.3065 0.126379 4.57751 0.0078125 4.8824 0.0078125C5.10259 0.0078125 5.29738 0.0713302 5.46676 0.198366C5.63614 0.325401 5.78012 0.482078 5.89868 0.668397L8.61724 5.82604C8.76969 6.09705 8.81203 6.39346 8.74428 6.71529C8.67653 7.03711 8.53255 7.30812 8.31236 7.52832L7.06741 8.77326C7.03353 8.80714 7.00389 8.86219 6.97848 8.93841C6.95308 9.01463 6.94037 9.07815 6.94037 9.12896C7.00813 9.48466 7.16057 9.89118 7.3977 10.3485C7.60096 10.755 7.91431 11.2505 8.33776 11.8348C8.76122 12.4192 9.36252 13.0924 10.1417 13.8546C10.9039 14.6339 11.5814 15.2393 12.1742 15.6713C12.7669 16.1031 13.2626 16.4208 13.6606 16.6241C14.0586 16.8273 14.3635 16.9501 14.5752 16.9923L14.8927 17.0559C14.9266 17.0559 14.9818 17.0432 15.0579 17.0178C15.1341 16.9923 15.1892 16.9627 15.2231 16.9288L16.6713 15.4552C16.9763 15.1842 17.3318 15.0487 17.7384 15.0487C18.0264 15.0487 18.255 15.0995 18.4243 15.2012H18.4497L23.3532 18.0976C23.7091 18.3179 23.9207 18.5973 23.9885 18.9361Z" fill="#000"/></svg></svg>