<?xml version="1.0" encoding="utf-8"?><svg fill="none" viewBox="0 0 12 12" id="ic_close" xmlns="http://www.w3.org/2000/svg"><path d="M6.786 6.001l4.439-4.414a.534.534 0 0 0 0-.762.547.547 0 0 0-.77 0l-4.434 4.41L1.545.76a.543.543 0 0 0-.77 0 .547.547 0 0 0 0 .771l4.473 4.473-4.489 4.464a.535.535 0 0 0 0 .762c.212.21.557.21.77 0l4.484-4.46 4.459 4.458a.543.543 0 0 0 .769 0 .547.547 0 0 0 0-.771L6.786 6z" fill="currentColor"/></svg><svg id="ic_arrow" viewBox="0 0 8 14" xmlns="http://www.w3.org/2000/svg">
<path d="M7.70317 7.69307L1.68338 13.7127C1.30045 14.0958 0.679593 14.0958 0.296848 13.7127C-0.0859285 13.3299 -0.0859285 12.7091 0.296848 12.3263L5.62343 6.9999L0.297003 1.67367C-0.0857737 1.29074 -0.0857737 0.669973 0.297003 0.287198C0.679779 -0.0957326 1.30061 -0.0957326 1.68354 0.287198L7.70333 6.30688C7.89472 6.49836 7.9903 6.74905 7.9903 6.99987C7.9903 7.25081 7.89453 7.50168 7.70317 7.69307Z" fill="white"/></svg></svg>