<svg width="0" height="0" class="hidden">
  <symbol width="24" height="24" id="ic_phone" viewBox="0 0 24 24" xmlns="http://www.w3.org/2000/svg">
    <path d="M23.9885 18.9361C24.0394 19.3257 23.9207 19.6645 23.6328 19.9524L20.2537 23.306C20.1013 23.4754 19.9023 23.6195 19.6567 23.7379C19.4111 23.8565 19.1697 23.9328 18.9327 23.9666C18.9158 23.9666 18.8648 23.9709 18.7801 23.9794C18.6955 23.9878 18.5854 23.9922 18.4499 23.9922C18.128 23.9922 17.6071 23.9371 16.8873 23.827C16.1674 23.7168 15.2866 23.4458 14.245 23.0139C13.2032 22.582 12.0218 21.9341 10.7007 21.0703C9.37954 20.2066 7.97364 19.0208 6.48309 17.5133C5.29742 16.3446 4.31501 15.2267 3.53586 14.1596C2.75671 13.0925 2.13 12.1058 1.65574 11.1996C1.18143 10.2935 0.825731 9.47196 0.588598 8.73515C0.351465 7.99835 0.190553 7.36317 0.105863 6.82962C0.0211726 6.29607 -0.0127036 5.87685 0.00423452 5.57197C0.0211726 5.26708 0.0296416 5.0977 0.0296416 5.06383C0.0635178 4.82669 0.139739 4.58533 0.258306 4.33972C0.376872 4.09412 0.520846 3.8951 0.690226 3.74266L4.06937 0.363512C4.3065 0.126379 4.57751 0.0078125 4.8824 0.0078125C5.10259 0.0078125 5.29738 0.0713302 5.46676 0.198366C5.63614 0.325401 5.78012 0.482078 5.89868 0.668397L8.61724 5.82604C8.76969 6.09705 8.81203 6.39346 8.74428 6.71529C8.67653 7.03711 8.53255 7.30812 8.31236 7.52832L7.06741 8.77326C7.03353 8.80714 7.00389 8.86219 6.97848 8.93841C6.95308 9.01463 6.94037 9.07815 6.94037 9.12896C7.00813 9.48466 7.16057 9.89118 7.3977 10.3485C7.60096 10.755 7.91431 11.2505 8.33776 11.8348C8.76122 12.4192 9.36252 13.0924 10.1417 13.8546C10.9039 14.6339 11.5814 15.2393 12.1742 15.6713C12.7669 16.1031 13.2626 16.4208 13.6606 16.6241C14.0586 16.8273 14.3635 16.9501 14.5752 16.9923L14.8927 17.0559C14.9266 17.0559 14.9818 17.0432 15.0579 17.0178C15.1341 16.9923 15.1892 16.9627 15.2231 16.9288L16.6713 15.4552C16.9763 15.1842 17.3318 15.0487 17.7384 15.0487C18.0264 15.0487 18.255 15.0995 18.4243 15.2012H18.4497L23.3532 18.0976C23.7091 18.3179 23.9207 18.5973 23.9885 18.9361Z"/>
  </symbol>

  <symbol width="24" height="24" id="ic_email" viewBox="0 0 24 24" fill="none" xmlns="http://www.w3.org/2000/svg">
    <path d="M12.6942 15.032C12.4675 15.1736 12.2125 15.2303 11.9858 15.2303C11.7591 15.2303 11.5041 15.1736 11.2774 15.032L0 8.14648V17.2988C0 19.2539 1.58678 20.8407 3.54191 20.8407H20.4581C22.4132 20.8407 24 19.2539 24 17.2988V8.14648L12.6942 15.032Z" fill="white"/>
    <path d="M20.458 3.15942H3.54185C1.87007 3.15942 0.453305 4.34951 0.113281 5.93628L12.0141 13.1901L23.8866 5.93628C23.5466 4.34951 22.1298 3.15942 20.458 3.15942Z" fill="white"/>
  </symbol>

  <symbol width="24" height="24" id="ic_location" viewBox="0 0 24 24" fill="none" xmlns="http://www.w3.org/2000/svg">
    <g clip-path="url(#clip0_3990_1630)">
    <path d="M12 0C7.038 0 3 4.066 3 9.065C3 16.168 11.154 23.502 11.501 23.81C11.644 23.937 11.822 24 12 24C12.178 24 12.356 23.937 12.499 23.811C12.846 23.502 21 16.168 21 9.065C21 4.066 16.962 0 12 0ZM12 14C9.243 14 7 11.757 7 9C7 6.243 9.243 4 12 4C14.757 4 17 6.243 17 9C17 11.757 14.757 14 12 14Z" fill="white"/>
    </g>
    <defs>
    <clipPath id="clip0_3990_1630">
    <rect width="24" height="24" fill="white"/>
    </clipPath>
    </defs>
  </symbol>

  <symbol width="33" height="33" id="ic_arrow_right" viewBox="0 0 33 33" xmlns="http://www.w3.org/2000/svg">
    <path d="M0.515625 16.5C0.515625 7.66992 7.66992 0.515625 16.5 0.515625C25.3301 0.515625 32.4844 7.66992 32.4844 16.5C32.4844 25.3301 25.3301 32.4844 16.5 32.4844C7.66992 32.4844 0.515625 25.3301 0.515625 16.5ZM16.5 30.4219C24.1506 30.4219 30.4219 24.2279 30.4219 16.5C30.4219 8.84941 24.2279 2.57812 16.5 2.57812C8.84941 2.57812 2.57812 8.77207 2.57812 16.5C2.57812 24.1506 8.77207 30.4219 16.5 30.4219ZM17.3057 24.46L24.7242 17.0479C25.0271 16.7449 25.0271 16.2551 24.7242 15.9521L17.3057 8.54004C17.0027 8.23711 16.5129 8.23711 16.21 8.54004L15.7652 8.98477C15.4623 9.28769 15.4623 9.79043 15.7781 10.0869L21.2889 15.4043H9.02344C8.59805 15.4043 8.25 15.7523 8.25 16.1777V16.8223C8.25 17.2477 8.59805 17.5957 9.02344 17.5957H21.2889L15.7717 22.9131C15.4623 23.216 15.4559 23.7123 15.7588 24.0152L16.2035 24.46C16.5129 24.7629 17.0027 24.7629 17.3057 24.46Z"/>
  </symbol>




</svg>